# xmcd
#
# Track frame offsets:
#	150
#	23752
#	32483
#	60578
#	98989
#	144440
#	174941
#	195418
#	216513
#
# Disc length: 3565 seconds
#
# Revision: 1
# Processed by: cddbd v1.5.1PL2 Copyright (c) Steve Scherf et al.
# Submitted via: EasyCDDAExtractor 9.0.0.1
#
DISCID=730deb09
DTITLE=Metallica - Xcel Energy Center St Paul 16-08-04 Disc 2
DYEAR=2004
DGENRE=Hard Rock
TTITLE0=No Leaf Clover
TTITLE1=Melbourne
TTITLE2=Nothing Else Matters
TTITLE3=Master Of Puppets
TTITLE4=One
TTITLE5=Enter Sandman
TTITLE6=Crowd Noise
TTITLE7=Stone Cold Crazy
TTITLE8=Seek and Destroy
EXTD=
EXTT0=
EXTT1=
EXTT2=
EXTT3=
EXTT4=
EXTT5=
EXTT6=
EXTT7=
EXTT8=
PLAYORDER=
